<svg version="1.1" xmlns="http://www.w3.org/2000/svg" viewBox="-302.07999963760375 -2906.1121276855465 4675.58408203125 3224.576104736328"><desc>Created with Snap</desc><defs></defs><g><rect x="-302.07999963760375" y="-2906.1121276855465" width="4675.58408203125" height="3224.576104736328" fill="#91171f" style=""></rect><g transform="matrix(17.7349,0,0,17.7349,1148.9668,-2687.5867)"><g><path d="M78.4,66.5c-5.5,4.8-9.9,15.2-9.9,15.2s-6.9-11.4-12.9-15.3c-9.5-6.1-13.6-6.2-13.6-6.2V65c0,0,7.8,1.2,11.7,4.6   c8.2,7.1,14.8,18.5,14.8,18.5S74.4,75,80.1,70.5C88.1,64.3,95,65,95,65v-4.8C95,60.1,85.1,60.7,78.4,66.5z" fill="#ffffff" style=""></path><path d="M42,80c-6.4-3.6-17.8-4.3-17.8-4.3s8.7-10.1,10.5-17C37.5,47.9,36.2,44,36.2,44l-4.6,1.6c0,0,1.3,7.7-0.6,12.4   c-4.1,9.9-13,19.8-13,19.8s14.6,1.3,20.7,5.1c8.6,5.4,10.2,12,10.2,12l4.6-1.6C53.5,93.4,49.7,84.4,42,80z" fill="#ffffff" style=""></path><path d="M35.3,36.8c11.3-0.9,14.6-3.4,14.6-3.4l-3-3.8c0,0-6.9,3.7-12.1,3.4c-10.9-0.6-23.3-5.6-23.3-5.6s3.5,14,1.8,20.9   C10.9,58.2,5,61.8,5,61.8l3,3.8c0,0,7.5-6.5,9.1-15.1c1.3-7.1-1.7-18-1.7-18S28,37.4,35.3,36.8z" fill="#ffffff" style=""></path><path d="M37.4,17.8c7.3-1.1,16.7-7.4,16.7-7.4s-0.6,13.2,2.4,19.8c4.6,10.2,8,12.5,8,12.5l2.7-4c0,0-5.9-5.2-7.3-10.2   C56.9,18.2,57.7,5,57.7,5s-12.3,7.8-19.5,8.5c-10.2,1-15.6-3.3-15.6-3.3l-2.7,4.1C19.9,14.2,28.6,19.1,37.4,17.8z" fill="#ffffff" style=""></path><path d="M65,60.5c0,0,3.1-7.2,7.4-10.1c9-6.1,21.9-9.7,21.9-9.7s-11.5-8.9-14.5-15.4c-4.2-9.1-1.9-15.6-1.9-15.6l-4.8-1.2   c0,0-1.9,9.6,2.2,17.4c3.4,6.4,12.5,13.2,12.5,13.2S75,42.9,69.6,47.8c-8.3,7.6-9.4,11.5-9.4,11.5L65,60.5z" fill="#ffffff" style=""></path></g><desc>Created with Snap</desc><defs></defs></g><g><g transform="matrix(1.024,0,0,-1.024,0,0)"><path d="M60 681Q72 681 80 673Q88 666 88 658Q88 650 81 638L402 638L405 647Q414 675 435 675Q446 675 454 667Q463 660 463 650Q463 640 458 630L421 561Q412 544 402 544Q381 544 381 563Q381 569 383 573L388 590L252 590L252 52L278 52Q302 52 302 26Q302 0 278 0L170 0Q146 0 146 26Q146 52 170 52L195 52L195 590L60 590L44 564Q36 552 26 552Q16 552 10 557Q5 563 5 570Q5 578 8 585L32 656Q40 681 60 681ZM554 52L554 586L515 586Q493 586 493 612Q493 638 515 638L588 638Q601 638 605 633Q610 629 610 616L610 392Q628 428 668 457Q708 486 765 486Q823 486 854 441Q885 397 885 338L885 52L914 52Q925 52 931 44Q937 36 937 26Q937 16 931 8Q925 0 914 0L804 0Q778 0 778 26Q778 52 804 52L829 52L829 341Q829 377 812 408Q795 439 754 439Q699 439 654 382Q610 325 610 262L610 52L639 52Q650 52 657 44Q664 36 664 26Q664 16 657 8Q650 0 639 0L523 0Q499 0 499 26Q499 52 523 52L554 52ZM1283 332Q1279 372 1247 409Q1215 446 1167 446Q1120 446 1089 411Q1058 376 1046 332L1283 332ZM1178 -10Q1087 -10 1032 61Q977 132 977 242Q977 352 1029 421Q1082 490 1168 490Q1212 490 1247 470Q1282 451 1301 422Q1341 363 1341 310Q1341 282 1315 282L1035 282Q1033 269 1033 245Q1033 153 1074 94Q1116 35 1178 35Q1205 35 1227 49Q1249 64 1258 77Q1267 91 1278 114Q1290 137 1310 137Q1340 137 1340 110Q1340 75 1295 32Q1251 -10 1178 -10ZM1803 215L1630 215Q1606 215 1606 241Q1606 268 1630 268L1803 268Q1815 268 1821 260Q1828 253 1828 242Q1828 215 1803 215ZM2103 143Q2103 177 2121 198Q2139 220 2157 220Q2176 220 2186 207Q2197 194 2197 176Q2197 139 2170 117Q2181 74 2215 53Q2250 33 2292 33Q2354 33 2390 75Q2427 117 2427 169Q2427 222 2387 260Q2357 287 2310 318L2259 351Q2204 386 2175 423Q2146 461 2146 516Q2146 572 2188 610Q2230 649 2287 649Q2345 649 2384 623Q2423 597 2423 560Q2423 542 2412 531Q2402 521 2382 521Q2362 521 2343 538Q2325 555 2325 569Q2325 583 2328 592Q2319 609 2286 609Q2253 609 2227 583Q2202 557 2202 525Q2202 473 2296 411L2347 377Q2380 354 2396 341Q2413 329 2438 303Q2486 253 2486 171Q2486 89 2429 39Q2372 -11 2294 -11Q2216 -11 2159 36Q2103 84 2103 143ZM2694 65Q2694 78 2702 86Q2710 94 2723 94Q2736 94 2744 86Q2752 79 2752 66Q2752 37 2726 13Q2701 -10 2663 -10Q2625 -10 2600 16Q2575 43 2575 82L2575 428L2532 428Q2521 428 2513 436Q2506 444 2506 454Q2506 464 2513 472Q2521 480 2532 480L2556 480Q2572 480 2576 484Q2580 489 2580 503L2580 557Q2580 596 2620 596Q2632 596 2632 584L2632 480L2676 480Q2703 480 2703 453Q2703 443 2696 435Q2689 428 2676 428L2632 428L2632 83Q2632 36 2663 36Q2694 36 2694 65ZM2772 241Q2772 349 2833 418Q2895 488 2999 488Q3104 488 3165 419Q3227 350 3227 242Q3227 135 3166 64Q3105 -6 2998 -6Q2892 -6 2832 64Q2772 134 2772 241ZM2877 99Q2926 41 2999 41Q3072 41 3121 98Q3171 156 3171 241Q3171 326 3121 383Q3071 441 2999 441Q2927 441 2877 384Q2828 327 2828 242Q2828 157 2877 99ZM3502 435L3370 435L3370 52L3389 52Q3401 52 3407 44Q3414 37 3414 26Q3414 0 3389 0L3294 0Q3268 0 3268 26Q3268 52 3294 52L3314 52L3314 428L3294 428Q3281 428 3274 436Q3267 444 3267 454Q3267 465 3274 472Q3281 480 3294 480L3479 480Q3530 480 3556 458Q3582 437 3582 404Q3582 387 3574 373Q3566 360 3548 360Q3530 360 3515 376Q3501 393 3500 411Q3500 430 3502 435ZM3913 332Q3909 372 3877 409Q3845 446 3797 446Q3750 446 3719 411Q3688 376 3676 332L3913 332ZM3808 -10Q3717 -10 3662 61Q3607 132 3607 242Q3607 352 3659 421Q3712 490 3798 490Q3842 490 3877 470Q3912 451 3931 422Q3971 363 3971 310Q3971 282 3945 282L3665 282Q3663 269 3663 245Q3663 153 3704 94Q3746 35 3808 35Q3835 35 3857 49Q3879 64 3888 77Q3897 91 3908 114Q3920 137 3940 137Q3970 137 3970 110Q3970 75 3925 32Q3881 -10 3808 -10Z" fill="#ffffff" style=""></path></g></g></g></svg>